<svg id="visual" viewBox="0 0 900 600" width="900" height="600" xmlns="http://www.w3.org/2000/svg" xmlns:xlink="http://www.w3.org/1999/xlink" version="1.1"><rect x="0" y="0" width="900" height="600" fill="#002233"></rect><path d="M0 387L21.5 406C43 425 86 463 128.8 485.3C171.7 507.7 214.3 514.3 257.2 501.2C300 488 343 455 385.8 452.2C428.7 449.3 471.3 476.7 514.2 479.2C557 481.7 600 459.3 642.8 458C685.7 456.7 728.3 476.3 771.2 473.3C814 470.3 857 444.7 878.5 431.8L900 419L900 601L878.5 601C857 601 814 601 771.2 601C728.3 601 685.7 601 642.8 601C600 601 557 601 514.2 601C471.3 601 428.7 601 385.8 601C343 601 300 601 257.2 601C214.3 601 171.7 601 128.8 601C86 601 43 601 21.5 601L0 601Z" fill="#0066FF" stroke-linecap="round" stroke-linejoin="miter"></path></svg>